<svg width="1.5em" height="1.5em" viewBox="0 0 33 32" fill="none" xmlns="http://www.w3.org/2000/svg">
<g clip-path="url(#clip0_765_14457)">
<path d="M32.5 16.0004C32.4986 12.9433 31.6213 9.95052 29.9721 7.37638C28.3229 4.80225 25.9708 2.75449 23.194 1.47545C20.4173 0.196413 17.3323 -0.260346 14.3041 0.159224C11.2759 0.578794 8.43129 1.85713 6.10694 3.84294C3.78258 5.82876 2.07581 8.4389 1.1886 11.3645C0.301389 14.29 0.27088 17.4085 1.10071 20.3509C1.93055 23.2932 3.58597 25.9363 5.87105 27.9671C8.15613 29.998 10.9752 31.3317 13.9946 31.8104V20.6493H9.93358V16.0185H13.9946V12.5091C13.9946 8.49332 16.3915 6.27738 20.0455 6.27738C21.2576 6.29296 22.4669 6.39877 23.6634 6.59394V10.5284H21.6464C21.302 10.4838 20.9519 10.5171 20.622 10.6256C20.2921 10.7341 19.9907 10.9152 19.7399 11.1555C19.4892 11.3959 19.2955 11.6893 19.1731 12.0144C19.0506 12.3394 19.0026 12.6877 19.0325 13.0337V16.0275H23.4734L22.7318 20.6493H18.9963V31.8285C22.7638 31.2316 26.1943 29.309 28.67 26.4072C31.1457 23.5053 32.5039 19.8148 32.5 16.0004Z" fill="#337FFF"/>
<path d="M22.7318 20.6486L23.4373 16.0177H18.9964V13.0239C18.9665 12.6779 19.0145 12.3296 19.1369 12.0046C19.2594 11.6795 19.4531 11.3861 19.7038 11.1457C19.9545 10.9054 20.256 10.7243 20.5859 10.6158C20.9158 10.5073 21.2659 10.474 21.6103 10.5186H23.6273V6.58414C22.4308 6.38897 21.2215 6.28316 20.0094 6.26758C16.3915 6.26758 13.9585 8.48352 13.9585 12.4993V16.0177H9.89746V20.6486H13.9585V31.8278C14.7876 31.955 15.6251 32.0185 16.4639 32.0177C17.2997 32.0188 18.1343 31.9553 18.9602 31.8278V20.6486H22.7318Z" fill="white"/>
</g>
<defs>
<clipPath id="clip0_765_14457">
<rect width="32" height="32" fill="white" transform="translate(0.5)"/>
</clipPath>
</defs>
</svg>
