<svg width="730" height="107" viewBox="0 0 730 107" fill="none" xmlns="http://www.w3.org/2000/svg">
<mask id="path-1-inside-1_3892_1945" fill="white">
<path fill-rule="evenodd" clip-rule="evenodd" d="M0 10C0 4.47715 4.47715 0 10 0H720C725.523 0 730 4.47715 730 10V39C722.268 39 716 45.268 716 53C716 60.732 722.268 67 730 67V97C730 102.523 725.523 107 720 107H10C4.47716 107 0 102.523 0 97V67C7.73199 67 14 60.732 14 53C14 45.268 7.73199 39 0 39V10Z"/>
</mask>
<path fill-rule="evenodd" clip-rule="evenodd" d="M0 10C0 4.47715 4.47715 0 10 0H720C725.523 0 730 4.47715 730 10V39C722.268 39 716 45.268 716 53C716 60.732 722.268 67 730 67V97C730 102.523 725.523 107 720 107H10C4.47716 107 0 102.523 0 97V67C7.73199 67 14 60.732 14 53C14 45.268 7.73199 39 0 39V10Z" fill="#FFB016" fill-opacity="0.1"/>
<path d="M730 39V40H731V39H730ZM730 67H731V66H730V67ZM0 67V66H-1V67H0ZM0 39H-1V40H0V39ZM10 -1C3.92487 -1 -1 3.92487 -1 10H1C1 5.02944 5.02944 1 10 1V-1ZM720 -1H10V1H720V-1ZM731 10C731 3.92487 726.075 -1 720 -1V1C724.971 1 729 5.02944 729 10H731ZM731 39V10H729V39H731ZM717 53C717 45.8203 722.82 40 730 40V38C721.716 38 715 44.7157 715 53H717ZM730 66C722.82 66 717 60.1797 717 53H715C715 61.2843 721.716 68 730 68V66ZM731 97V67H729V97H731ZM720 108C726.075 108 731 103.075 731 97H729C729 101.971 724.971 106 720 106V108ZM10 108H720V106H10V108ZM-1 97C-1 103.075 3.92487 108 10 108V106C5.02944 106 1 101.971 1 97H-1ZM-1 67V97H1V67H-1ZM13 53C13 60.1797 7.1797 66 0 66V68C8.28427 68 15 61.2843 15 53H13ZM0 40C7.1797 40 13 45.8203 13 53H15C15 44.7157 8.28427 38 0 38V40ZM-1 10V39H1V10H-1Z" fill="#CC801F" mask="url(#path-1-inside-1_3892_1945)"/>
</svg>
